Coordinates
datacolumns 6
datarows 61
range 0 0.6
inDegrees=yes
Units are S.I. units (second, meters, Newtons, ...)
If the header above contains a line with 'inDegrees', this indicates whether rotational values are in degrees (yes) or radians (no).
endheader
time	foot_tx	hip_flexion_r	knee_angle_r	ankle_angle_r	lumbar
0	0.24122423	56.21604558	-84.47823776	3.3196426	-35.07570573
0.01	0.24122403	56.23872171	-84.46330084	3.31117225	-35.18275331
0.02	0.24122591	56.26313853	-84.44646737	3.30095775	-35.29997545
0.03	0.24122974	56.28974576	-84.42783317	3.2890619	-35.42784597
0.04	0.24123379	56.31855708	-84.40798636	3.27611962	-35.56669087
0.05	0.24123734	56.35016987	-84.38776604	3.26296552	-35.71601209
0.06	0.24123888	56.38398377	-84.36769366	3.25035025	-35.87674969
0.07	0.24123707	56.42368117	-84.34833156	3.23817883	-36.04565179
0.08	0.24123044	56.46615099	-84.3293349	3.22684805	-36.22668252
0.09	0.24121818	56.51294205	-84.31066133	3.21611465	-36.41876553
0.1	0.24120113	56.56620576	-84.29230791	3.2057035	-36.61983667
0.11	0.24117712	56.62506789	-84.27401203	3.19574917	-36.83087371
0.12	0.24114661	56.69302993	-84.25624535	3.18624464	-37.0477477
0.13	0.24110922	56.77027688	-84.23861073	3.17721541	-37.27008795
0.14	0.24106741	56.85972827	-84.22084466	3.16825702	-37.49437936
0.15	0.24101564	56.96065504	-84.20416704	3.16080338	-37.72085325
0.16	0.24096237	57.07513964	-84.18690721	3.15330099	-37.94741743
0.17	0.24091369	57.2472822	-84.1718017	3.14222842	-38.12830181
0.18	0.24085597	57.34831268	-84.15193855	3.13858326	-38.39673469
0.19	0.24081007	57.53699173	-84.13585297	3.12862035	-38.58875453
0.2	0.24076298	57.68076259	-84.11629544	3.12357173	-38.84183453
0.21	0.24072875	57.88712711	-84.09958793	3.11461426	-39.04499499
0.22	0.24069951	58.10002342	-84.08285634	3.10687839	-39.25667563
0.23	0.24067595	58.32128055	-84.06652679	3.10065294	-39.47522602
0.24	0.24065727	58.55237592	-84.05080278	3.09610472	-39.69959916
0.25	0.24064268	58.79453097	-84.03570818	3.09321843	-39.92918337
0.26	0.24063138	59.04870944	-84.02122017	3.09194716	-40.16354176
0.27	0.24062299	59.31577653	-84.00730509	3.09224004	-40.40207036
0.28	0.24061267	59.65305193	-84.00090558	3.09233612	-40.58396738
0.29	0.24060857	59.93561668	-83.98851441	3.09759398	-40.84071902
0.3	0.24060283	60.29125265	-83.98378768	3.10265799	-41.03726128
0.31	0.24059971	60.63199657	-83.97782379	3.11185182	-41.26585907
0.32	0.24059794	60.98714227	-83.97406485	3.12421402	-41.49528441
0.33	0.24059561	61.35726307	-83.97243228	3.1397633	-41.72516173
0.34	0.24058988	61.74399985	-83.97310213	3.15855863	-41.95438514
0.35	0.24058484	62.14688253	-83.97479922	3.17968083	-42.18455948
0.36	0.24056816	62.56843984	-83.98009095	3.20505459	-42.41336228
0.37	0.24054877	63.0068207	-83.98587417	3.23253448	-42.6443458
0.38	0.24052467	63.4639347	-83.9931918	3.26279464	-42.87600961
0.39	0.24049894	63.93722668	-84.00156721	3.29563643	-43.11141392
0.4	0.2404749	64.4246216	-84.01043708	3.33071961	-43.35335196
0.41	0.24045352	64.93176818	-84.01980928	3.36761396	-43.59698857
0.42	0.24043039	65.45419464	-84.03224642	3.40847988	-43.84714547
0.43	0.24041409	65.99830399	-84.04433204	3.45009032	-44.10019718
0.44	0.24040316	66.5679097	-84.05680963	3.49236373	-44.35440681
0.45	0.24038975	67.17426726	-84.07032296	3.53471233	-44.60036823
0.46	0.24038255	67.82082511	-84.08269842	3.57528228	-44.8361468
0.47	0.24036675	68.50488015	-84.09690239	3.61796316	-45.06277019
0.48	0.24035462	69.22739808	-84.10952587	3.66133426	-45.27747032
0.49	0.2403395	69.98474399	-84.1216952	3.70796471	-45.48107585
0.5	0.24032498	70.77791392	-84.13289828	3.75796163	-45.67025383
0.51	0.24030213	71.59807477	-84.14462262	3.81459426	-45.85066028
0.52	0.24028877	72.45006533	-84.15310214	3.87515572	-46.01417174
0.53	0.24026679	73.32158014	-84.16287945	3.94607763	-46.1679136
0.54	0.24025169	74.21846281	-84.17137195	4.02563622	-46.30146317
0.55	0.24021889	75.12805437	-84.18500659	4.12141479	-46.42198051
0.56	0.24019341	76.06653303	-84.19761026	4.22770847	-46.50887521
0.57	0.24015524	77.03566739	-84.21593733	4.35040811	-46.55332309
0.58	0.24010601	78.03773272	-84.23879897	4.48952241	-46.54734618
0.59	0.24003762	79.07170286	-84.26707337	4.64704847	-46.48564762
0.6	0.23994757	80.13193093	-84.29921783	4.82376988	-46.36814541
